<svg xmlns="http://www.w3.org/2000/svg" width="210" height="642.833" viewBox="0 0 210 642.833">
  <g id="s" transform="translate(-855.5 -227.667)">
    <g id="s3" transform="translate(929.476 737.156)" fill="none">
      <path d="M30.748,0,61.365,66.608,30.748,133.344.468,66.608Z" stroke="none"/>
      <path d="M 30.77855110168457 14.43193817138672 L 7.058174133300781 66.61080169677734 L 30.7785587310791 118.8892440795898 L 54.76255798339844 66.61081695556641 L 30.77855110168457 14.43193817138672 M 30.7483959197998 0 L 61.36494064331055 66.60843658447266 L 30.7483959197998 133.3439636230469 L 0.4683723449707031 66.60843658447266 L 30.7483959197998 0 Z" stroke="none" fill="#ebedf1"/>
    </g>
    <g id="s2" transform="translate(855.032 227.667)" fill="none">
      <path d="M104.888,0l105.58,229.7L104.888,459.833.468,229.7Z" stroke="none"/>
      <path d="M 104.9182052612305 14.43191528320313 L 7.058181762695313 229.6995544433594 L 104.9182205200195 445.3778991699219 L 203.865966796875 229.6995849609375 L 104.9182052612305 14.43191528320313 M 104.888069152832 -3.0517578125e-05 L 210.4683837890625 229.6972045898438 L 104.888069152832 459.8326416015625 L 0.4683837890625 229.6972045898438 L 104.888069152832 -3.0517578125e-05 Z" stroke="none" fill="#ebedf1"/>
    </g>
    <g id="s1" transform="translate(907.164 572.445)" fill="none">
      <path d="M52.937,0l53.052,115.418L52.937,231.055.468,115.418Z" stroke="none"/>
      <path d="M 52.96703338623047 14.43194580078125 L 7.058181762695313 115.4199752807617 L 52.96704483032227 216.6006774902344 L 99.38619995117188 115.4199905395508 L 52.96703338623047 14.43194580078125 M 52.93687438964844 -1.52587890625e-05 L 105.9885864257813 115.4175872802734 L 52.93687438964844 231.0553741455078 L 0.4683761596679688 115.4175872802734 L 52.93687438964844 -1.52587890625e-05 Z" stroke="none" fill="#ebedf1"/>
    </g>
  </g>
</svg>
